<svg width="30" height="30" viewBox="0 0 30 30" fill="none" xmlns="http://www.w3.org/2000/svg">
<path d="M13.4082 6.65617C10.7539 7.07219 8.0293 8.49016 5.35742 10.8456C4.16797 11.8945 2.57422 13.623 2.28125 14.1796C2.16406 14.4023 2.14062 14.5253 2.14062 14.9999C2.14062 15.4745 2.16406 15.5976 2.28125 15.8202C2.70312 16.623 4.92383 18.8788 6.53516 20.1386C8.32227 21.539 10.4902 22.6581 12.2949 23.1093C13.3906 23.3847 14.041 23.455 15.2891 23.4198C16.4961 23.3906 17.0586 23.3085 18.1309 22.998C21.1191 22.1308 24.5059 19.7284 27.1777 16.5644C27.7227 15.9198 27.8457 15.662 27.8809 15.1171C27.9277 14.2968 27.6406 13.8398 26.0176 12.164C24.2188 10.3066 22.4023 8.92961 20.4512 7.94524C19.0977 7.25969 17.8555 6.84953 16.5488 6.65031C15.8281 6.53899 14.1172 6.54485 13.4082 6.65617ZM16.3496 8.58977C18.4766 8.92961 20.6855 10.0663 23 12.0058C23.5859 12.498 25.1797 14.0683 25.6543 14.6308L25.9648 14.9941L25.543 15.4804C24.0195 17.2323 21.9453 18.9784 20.2051 19.9745C18.3828 21.0175 16.7188 21.5097 14.9961 21.5097C13.0332 21.5097 11.0586 20.8359 8.9082 19.4296C7.44922 18.4687 5.65039 16.8691 4.34961 15.3632L4.03906 15.0058L4.46094 14.5195C5.97852 12.7675 8.08203 11.0097 9.86328 9.99016C12.0957 8.71281 14.2461 8.24992 16.3496 8.58977Z" fill="white"/>
<path d="M13.8984 10.8984C12.4629 11.2793 11.2676 12.4805 10.8984 13.9219C10.8164 14.2324 10.7812 14.5723 10.7812 15C10.7812 16.2188 11.1621 17.1387 12.0117 17.9883C12.8613 18.8379 13.7812 19.2188 15 19.2188C16.2188 19.2188 17.1387 18.8379 17.9883 17.9883C18.8379 17.1387 19.2188 16.2188 19.2188 15C19.2188 14.5723 19.1836 14.2324 19.1016 13.9219C18.7324 12.4688 17.5312 11.2676 16.0781 10.8984C15.4746 10.7402 14.4961 10.7461 13.8984 10.8984ZM15.9551 12.9082C16.3887 13.1074 16.8926 13.6055 17.0977 14.0449C17.2383 14.3496 17.2559 14.4551 17.2559 15C17.2559 15.5449 17.2383 15.6504 17.0977 15.9551C16.8926 16.3887 16.3887 16.8926 15.9551 17.0977C15.6504 17.2383 15.5449 17.2559 15 17.2559C14.4551 17.2559 14.3496 17.2383 14.0449 17.0977C13.6113 16.8926 13.1074 16.3887 12.9023 15.9551C12.7617 15.6504 12.7441 15.5449 12.7441 15C12.7441 14.4551 12.7617 14.3496 12.8965 14.0625C13.1777 13.4707 13.6582 13.0313 14.2559 12.8203C14.7129 12.6563 15.5039 12.6973 15.9551 12.9082Z" fill="white"/>
</svg>
