<svg width="30" height="30" viewBox="0 0 30 30" fill="none" xmlns="http://www.w3.org/2000/svg">
<path d="M13.9017 4.00284C11.0117 4.31294 8.39311 5.69548 6.54973 7.89203C5.25333 9.43393 4.44792 11.1826 4.09045 13.2327C4.00861 13.7021 4 13.9304 4 14.9985C4 16.0667 4.00861 16.2949 4.09045 16.7644C4.4953 19.0902 5.46868 21.0154 7.07518 22.6822C8.72475 24.3963 10.805 25.4817 13.2341 25.9081C13.7036 25.9899 13.9319 25.9985 15 25.9985C16.3481 25.9985 16.7529 25.9555 17.8125 25.6841C21.6112 24.7021 24.7036 21.6097 25.6856 17.811C25.9569 16.7515 26 16.3466 26 14.9985C26 13.6505 25.9569 13.2456 25.6856 12.1861C24.7036 8.39164 21.6112 5.29493 17.8125 4.31294C16.8348 4.06314 16.3739 4.00715 15.1723 3.99423C14.5693 3.98561 13.9965 3.98992 13.9017 4.00284ZM16.3352 5.80315C18.4283 6.1391 20.0779 6.97896 21.5466 8.45194C22.8301 9.73111 23.6742 11.2429 24.0619 12.9312C24.3633 14.262 24.3633 15.735 24.0619 17.0659C23.5407 19.3572 22.1108 21.3987 20.0521 22.7855C19.2596 23.3196 18.0579 23.8321 17.0673 24.0604C15.7365 24.3619 14.2635 24.3619 12.9327 24.0604C10.6413 23.5393 8.59984 22.1093 7.213 20.0506C6.67893 19.2581 6.16641 18.0565 5.93814 17.0659C5.63665 15.735 5.63665 14.262 5.93814 12.9312C6.32576 11.2429 7.16993 9.73111 8.45341 8.45194C10.0771 6.82391 11.9334 5.96251 14.3324 5.72132C14.6727 5.68687 15.9346 5.73855 16.3352 5.80315Z" fill="white"/>
<path d="M14.8043 9.0935C14.5674 9.1538 14.3951 9.27009 14.2745 9.45098L14.1583 9.63187L14.1453 12.4529L14.1367 15.2783L14.2315 15.4721C14.3176 15.6401 14.5459 15.8296 16.0318 16.9494C16.9664 17.6558 17.8321 18.2889 17.9484 18.3621C18.1379 18.4784 18.1939 18.4913 18.448 18.4784C18.9605 18.4525 19.2749 18.1295 19.2749 17.6213C19.2749 17.182 19.2534 17.1561 17.4703 15.8167L15.8595 14.6107L15.8509 12.1213L15.838 9.63187L15.7174 9.45098C15.5365 9.17102 15.1273 9.01167 14.8043 9.0935Z" fill="white"/>
</svg>
