<svg width="30" height="30" viewBox="0 0 30 30" fill="none" xmlns="http://www.w3.org/2000/svg">
<path d="M24.9904 21.4221L25.0903 21.4256C25.1083 20.9169 25.0995 20.7461 25.0207 20.4121L25.0206 20.4118C24.8098 19.5313 24.3098 18.7701 23.5682 18.2115C23.4219 18.1006 23.1918 17.9711 22.9564 17.8579C22.7205 17.7444 22.4711 17.6434 22.2844 17.592L22.2833 17.5917C22.0607 17.5331 21.7451 17.4992 21.4312 17.4908C21.1171 17.4823 20.7953 17.499 20.5596 17.5457L20.5587 17.5459C19.7663 17.7108 19.0648 18.1006 18.5059 18.6963L18.5052 18.697L18.2437 18.981L15.3196 17.5142L15.3194 17.5141C14.4958 17.1033 13.7472 16.726 13.2045 16.4488C12.9331 16.3101 12.7136 16.1966 12.562 16.1165C12.4862 16.0764 12.428 16.0449 12.389 16.0231C12.3887 16.0229 12.3884 16.0227 12.3881 16.0225C12.3907 16.0088 12.3937 15.9932 12.3971 15.9759C12.4092 15.9141 12.4259 15.8331 12.4437 15.7484C12.4437 15.7484 12.4437 15.7484 12.4437 15.7484L24.9904 21.4221ZM24.9904 21.4221C25.0082 20.9174 24.9993 20.7566 24.9234 20.4351L24.9904 21.4221ZM24.9904 21.4221L25.0903 21.4253C25.0791 21.7715 25.0565 22.0213 25.003 22.254C24.9493 22.4874 24.8656 22.6991 24.7369 22.9701L24.7366 22.9707C24.2503 23.9757 23.3016 24.7413 22.2143 25.0029V25.0029L22.2141 25.003C21.4439 25.1864 20.4526 25.1047 19.7619 24.8007L19.7617 24.8006C19.2006 24.5522 18.6114 24.0766 18.2223 23.5592C18.1114 23.4129 17.9819 23.1827 17.8686 22.9471C17.7552 22.7111 17.6542 22.4616 17.6028 22.2748L17.6026 22.2741C17.555 22.0955 17.5224 21.7815 17.5084 21.4786C17.4944 21.1768 17.4981 20.8679 17.5293 20.699C17.5294 20.6987 17.5294 20.6985 17.5295 20.6982L17.557 20.536L14.5603 19.0373L14.5602 19.0373L11.5601 17.5324L11.2672 17.8101L11.2669 17.8103C10.8706 18.1837 10.3346 18.4854 9.76437 18.668L9.76437 18.668L9.76289 18.6684C9.45354 18.7622 9.31186 18.7754 8.68464 18.7754C8.34295 18.7754 8.15369 18.7734 7.99841 18.7528C7.84006 18.7318 7.71853 18.6917 7.51415 18.6228L7.51346 18.6226C6.22797 18.1787 5.30064 17.1792 4.99318 15.8941L24.9904 21.4221ZM9.78648 11.3227C10.3399 11.4966 10.8801 11.8075 11.2669 12.1714L11.2672 12.1716L11.5601 12.4494L14.5602 10.9445L14.5603 10.9445L17.557 9.44571L17.5295 9.28356C17.5294 9.28329 17.5294 9.28302 17.5293 9.28276C17.4981 9.11387 17.4944 8.80493 17.5084 8.50312C17.5224 8.20022 17.555 7.88623 17.6026 7.70766L17.6028 7.70691C17.6542 7.52012 17.7552 7.27067 17.8692 7.03357C17.983 6.79674 18.1136 6.56451 18.2264 6.41398L18.2267 6.41358L9.78618 11.3226C9.78628 11.3226 9.78638 11.3226 9.78648 11.3227ZM9.78648 11.3227C9.55931 11.2494 9.21518 11.2054 8.87332 11.1919C8.53093 11.1783 8.17764 11.1948 7.9313 11.2488L9.78648 11.3227ZM25.0206 9.57005L25.0207 9.56964C25.0995 9.23578 25.1083 9.06059 25.0948 8.53476L25.0948 8.53394C25.0768 8.00252 25.0538 7.83965 24.9467 7.52275L24.9466 7.52263C24.5347 6.30947 23.6856 5.46039 22.46 5.03956L22.4596 5.03941C22.3046 4.98697 22.1893 4.95462 22.0368 4.93502C21.887 4.91579 21.7032 4.9091 21.4114 4.90464C20.8603 4.8912 20.666 4.90427 20.3758 4.97917C20.3757 4.9792 20.3756 4.97922 20.3755 4.97925L20.4005 5.07608L25.0206 9.57005ZM25.0206 9.57005C24.7595 10.6561 24.067 11.5512 23.0853 12.0605L25.0206 9.57005ZM12.3971 14.0058C12.4092 14.0677 12.4259 14.1487 12.4437 14.2333L21.4768 12.487C21.4768 12.487 21.4767 12.487 21.4767 12.487C20.3179 12.542 19.2984 12.1285 18.5059 11.2855L18.5052 11.2847L18.2437 11.0007L15.3196 12.4676L15.3194 12.4677C14.4958 12.8785 13.7472 13.2557 13.2045 13.533C12.9331 13.6716 12.7136 13.7851 12.562 13.8653C12.4862 13.9054 12.428 13.9368 12.389 13.9587C12.3887 13.9589 12.3884 13.9591 12.3881 13.9592C12.3907 13.9729 12.3937 13.9886 12.3971 14.0058ZM23.1604 9.73262L23.1607 9.73202C23.8196 8.49087 23.2117 7.01601 21.8994 6.62801C21.7428 6.58274 21.5071 6.5595 21.2704 6.56169C21.0326 6.56388 20.8093 6.59161 20.6755 6.6395C19.1056 7.20586 18.6602 9.04442 19.8014 10.1905C20.4814 10.8663 21.4784 11.0222 22.2951 10.5797L22.2956 10.5795C22.4474 10.4983 22.6273 10.3577 22.7895 10.1988C22.9521 10.0394 23.0891 9.86918 23.1604 9.73262ZM9.31154 12.9427L9.31146 12.9427C8.44396 12.6747 7.44462 13.0323 6.92385 13.8048C6.78304 14.0183 6.70395 14.1664 6.65794 14.3321C6.61153 14.4992 6.59685 14.6911 6.59685 14.9953V15.5347L6.77393 15.8932C6.77394 15.8932 6.77395 15.8932 6.77396 15.8933C7.46303 17.2803 9.24541 17.5533 10.2673 16.4374C11.3337 15.2726 10.8224 13.408 9.31154 12.9427ZM21.822 19.2189L21.8218 19.2188C21.6786 19.1814 21.4868 19.1618 21.2929 19.1618C21.0989 19.1618 20.911 19.1815 20.7752 19.2185C19.835 19.4793 19.1698 20.3387 19.1655 21.2884C19.1655 21.8462 19.3556 22.3178 19.7723 22.7604L19.773 22.7611C20.1861 23.2085 20.6903 23.4211 21.3156 23.4212C22.5106 23.4168 23.4259 22.5013 23.4304 21.306C23.4304 20.6721 23.2182 20.1762 22.7611 19.7489C22.4551 19.4644 22.1838 19.3125 21.822 19.2189Z" fill="white" stroke="white" stroke-width="0.2"/>
</svg>
