<svg width="30" height="30" viewBox="0 0 30 30" fill="none" xmlns="http://www.w3.org/2000/svg">
<path d="M6.80396 7.95029C7.66754 6.99331 8.85332 6.46685 10.1459 6.46685C11.0886 6.46685 11.9539 6.77234 12.7211 7.37853C13.4075 7.92098 13.8884 8.60954 14.1717 9.09477L14.1717 9.0948C14.3464 9.39386 14.6564 9.57476 15 9.57476C15.3436 9.57476 15.6536 9.39386 15.8283 9.0948L15.7061 9.02342L15.8283 9.0948C16.1117 8.60954 16.5926 7.92096 17.2789 7.37851C18.0461 6.77234 18.9114 6.46685 19.8543 6.46685C21.1467 6.46685 22.3326 6.99332 23.196 7.95027C24.0735 8.92282 24.5614 10.2727 24.5614 11.7559C24.5614 13.3114 23.9982 14.7092 22.7095 16.2982C21.4592 17.8399 19.5962 19.4625 17.4222 21.3559C16.69 21.9932 15.8635 22.7131 14.9983 23.4817C14.1381 22.7145 13.3129 21.9958 12.5823 21.3596L12.581 21.3585L12.5783 21.3562C12.5781 21.356 12.5779 21.3559 12.5777 21.3557C10.4038 19.4626 8.54088 17.8397 7.29065 16.2982L7.17415 16.3927L7.29065 16.2982C6.00185 14.7092 5.43856 13.3114 5.43856 11.7559C5.43856 10.2727 5.92652 8.92283 6.80396 7.95029ZM6.80396 7.95029L6.6926 7.84979L6.80396 7.95029ZM11.5483 22.587L11.5494 22.588C12.3055 23.2463 13.1616 23.9919 14.0496 24.7853C14.3121 25.0203 14.6496 25.15 15 25.15C15.3502 25.15 15.6879 25.0203 15.9503 24.7856C16.8402 23.9904 17.6977 23.2436 18.4551 22.5842L18.4551 22.5842L18.4642 22.5763C20.6731 20.6527 22.5948 18.9792 23.9347 17.3272C25.4396 15.4718 26.15 13.6992 26.15 11.7559C26.15 9.87564 25.5191 8.13455 24.3663 6.85678L24.2555 6.95672L24.3663 6.85677C23.199 5.56314 21.5957 4.85 19.8543 4.85C18.5496 4.85 17.354 5.27226 16.3047 6.10157C15.8264 6.47949 15.3899 6.93304 15 7.45527C14.6102 6.93302 14.1736 6.47948 13.6955 6.10158L13.6955 6.10157C12.6461 5.27226 11.4505 4.85 10.1459 4.85C8.40427 4.85 6.80116 5.56314 5.6339 6.85677L5.6339 6.85678C4.48107 8.13455 3.85 9.87563 3.85 11.7559C3.85 13.6992 4.56061 15.4718 6.06551 17.3274L6.18201 17.2329L6.06551 17.3274C7.4057 18.9797 9.32824 20.6538 11.5383 22.5782L11.5445 22.5836L11.5456 22.5846L11.5483 22.587Z" fill="white" stroke="white" stroke-width="0.3"/>
</svg>
