<svg width="30" height="30" viewBox="0 0 30 30" fill="none" xmlns="http://www.w3.org/2000/svg">
<path d="M13.6366 4.96324L13.6367 4.96322C13.9024 4.92654 14.4031 4.90536 14.8982 4.90089C15.3933 4.89643 15.8941 4.90857 16.1598 4.94068L16.1598 4.94069C18.6863 5.24732 21.0686 6.52762 22.6772 8.43611L22.6773 8.43615C23.983 9.98701 24.8072 11.8897 25.0369 13.8652L25.037 13.8661C25.0712 14.1833 25.0788 14.7425 25.0654 15.2864C25.052 15.8289 25.0175 16.3687 24.9645 16.6458C24.7666 17.7353 24.4604 18.6552 23.9701 19.6282C23.97 19.6283 23.97 19.6283 23.97 19.6284L23.6299 20.3135L24.3511 21.9316L24.3511 21.9317C24.716 22.7515 24.9028 23.1728 24.9978 23.4277C25.0457 23.5561 25.072 23.6467 25.0858 23.7276C25.0996 23.8089 25.1 23.8768 25.1 23.9549C25.1 24.0912 25.0958 24.1882 25.0736 24.2772C25.0509 24.3681 25.011 24.4444 24.9518 24.5425L24.9518 24.5425L24.9507 24.5442C24.8581 24.6907 24.7137 24.8352 24.5675 24.928L24.5675 24.928L24.5648 24.9296C24.4657 24.9883 24.3902 25.0284 24.2974 25.0512C24.2069 25.0733 24.1054 25.0775 23.9565 25.0775H23.6175H23.5962L23.5767 25.0687L21.9223 24.3276L21.9222 24.3275L20.3184 23.6114L20.0951 23.7381C20.095 23.7381 20.095 23.7381 20.095 23.7381C18.9829 24.3738 17.6866 24.8245 16.421 25.0094C15.6897 25.1179 14.3915 25.1315 13.6817 25.0364L13.6815 25.0364C11.7629 24.7748 9.99732 23.9945 8.46696 22.7191C7.94815 22.2899 7.57344 21.9009 7.09297 21.3074L7.09261 21.307C5.93031 19.8545 5.16939 18.0375 4.9442 16.1705L4.94418 16.1704C4.91443 15.9206 4.9 15.4566 4.9 14.9976C4.9 14.5386 4.91443 14.0745 4.94418 13.8248L4.94421 13.8245C5.11986 12.3815 5.65979 10.8447 6.40814 9.65302C8.0158 7.09189 10.655 5.37814 13.6366 4.96324ZM16.1779 6.63924L16.1779 6.63924C15.0942 6.48046 13.8505 6.55561 12.8294 6.83326C9.87146 7.64996 7.59283 9.95375 6.81703 12.9241L6.81699 12.9243C6.48244 14.1981 6.48244 15.797 6.81699 17.0708L6.81703 17.071C7.79574 20.8187 11.1413 23.4263 14.966 23.4307C16.6376 23.4307 17.9932 23.0474 19.436 22.1683L19.4365 22.1679C19.8327 21.9299 19.9638 21.8634 20.1614 21.8634C20.2629 21.8634 20.3998 21.902 20.6329 21.9924C20.8702 22.0844 21.2213 22.2361 21.7584 22.4748C22.1326 22.6399 22.4743 22.7881 22.7235 22.8939C22.7998 22.9263 22.8673 22.9547 22.9243 22.9783C22.9003 22.9198 22.8714 22.8503 22.8381 22.7714C22.7319 22.5198 22.5827 22.1754 22.4157 21.7985L22.4156 21.7983C22.1904 21.287 22.038 20.9303 21.9418 20.6842C21.8938 20.5612 21.8591 20.4642 21.8363 20.3884C21.8142 20.3148 21.8006 20.2531 21.8006 20.2041C21.8006 20.0283 21.8763 19.8701 22.1051 19.4956C23.4504 17.2874 23.7539 14.7192 22.9563 12.3277L22.9563 12.3276C21.9514 9.3091 19.3156 7.09815 16.1779 6.63924Z" fill="white" stroke="white" stroke-width="0.2"/>
</svg>
