<svg width="197" height="29" viewBox="0 0 197 29" fill="none" xmlns="http://www.w3.org/2000/svg">
<path d="M15.12 28.08C13.128 28.08 11.256 27.708 9.504 26.964C7.776 26.22 6.252 25.224 4.932 23.976C3.636 22.704 2.604 21.24 1.836 19.584C1.092 17.928 0.72 16.2 0.72 14.4C0.72 12.6 1.092 10.884 1.836 9.252C2.604 7.596 3.636 6.144 4.932 4.896C6.252 3.624 7.776 2.616 9.504 1.872C11.256 1.104 13.128 0.719999 15.12 0.719999C16.824 0.719999 18.372 0.971999 19.764 1.476C21.156 1.98 22.38 2.652 23.436 3.492C24.492 4.308 25.38 5.256 26.1 6.336C26.82 7.416 27.36 8.544 27.72 9.72L19.44 10.8C19.176 10.44 18.9 10.104 18.612 9.792C18.324 9.48 18 9.216 17.64 9C17.28 8.784 16.86 8.616 16.38 8.496C15.924 8.352 15.384 8.28 14.76 8.28C14.04 8.28 13.332 8.448 12.636 8.784C11.94 9.12 11.316 9.576 10.764 10.152C10.236 10.704 9.804 11.352 9.468 12.096C9.156 12.816 9 13.584 9 14.4C9 15.216 9.156 15.996 9.468 16.74C9.804 17.46 10.236 18.108 10.764 18.684C11.316 19.236 11.94 19.68 12.636 20.016C13.332 20.352 14.04 20.52 14.76 20.52C15.312 20.52 15.792 20.472 16.2 20.376C16.632 20.256 17.016 20.124 17.352 19.98C17.712 19.836 18.048 19.656 18.36 19.44V19.08H14.4V12.96H28.44V15.12C28.44 16.752 28.08 18.348 27.36 19.908C26.664 21.444 25.704 22.824 24.48 24.048C23.256 25.248 21.84 26.22 20.232 26.964C18.624 27.708 16.92 28.08 15.12 28.08ZM47.5045 1.8H55.7845V16.92C55.7845 18.552 55.4965 20.052 54.9205 21.42C54.3685 22.764 53.5765 23.94 52.5445 24.948C51.5125 25.932 50.2645 26.7 48.8005 27.252C47.3365 27.804 45.7045 28.08 43.9045 28.08C42.1045 28.08 40.4725 27.804 39.0085 27.252C37.5445 26.7 36.2965 25.932 35.2645 24.948C34.2325 23.94 33.4285 22.764 32.8525 21.42C32.3005 20.052 32.0245 18.552 32.0245 16.92V1.8H40.3045V16.92C40.3045 18 40.6285 18.876 41.2765 19.548C41.9485 20.196 42.8245 20.52 43.9045 20.52C44.9845 20.52 45.8485 20.196 46.4965 19.548C47.1685 18.876 47.5045 18 47.5045 16.92V1.8ZM73.7761 18.72C73.7761 18.36 73.4401 18.084 72.7681 17.892C72.0961 17.676 71.2441 17.46 70.2121 17.244C69.2041 17.028 68.1121 16.764 66.9361 16.452C65.7601 16.116 64.6561 15.648 63.6241 15.048C62.6161 14.448 61.7761 13.668 61.1041 12.708C60.4321 11.748 60.0961 10.512 60.0961 9C60.0961 7.92 60.3361 6.888 60.8161 5.904C61.2961 4.896 61.9921 4.008 62.9041 3.24C63.8401 2.472 64.9801 1.86 66.3241 1.404C67.6681 0.947999 69.1921 0.719999 70.8961 0.719999C72.4321 0.719999 73.8241 0.947999 75.0721 1.404C76.3201 1.86 77.4121 2.484 78.3481 3.276C79.3081 4.068 80.1001 4.992 80.7241 6.048C81.3481 7.08 81.7921 8.184 82.0561 9.36L73.7761 10.44C73.4161 9.72 73.0081 9.18 72.5521 8.82C72.1201 8.46 71.4481 8.28 70.5361 8.28C69.9121 8.28 69.4561 8.4 69.1681 8.64C68.8801 8.856 68.7361 9.096 68.7361 9.36C68.7361 9.72 69.0721 10.008 69.7441 10.224C70.4161 10.416 71.2561 10.62 72.2641 10.836C73.2961 11.052 74.4001 11.328 75.5761 11.664C76.7521 11.976 77.8441 12.432 78.8521 13.032C79.8841 13.632 80.7361 14.424 81.4081 15.408C82.0801 16.368 82.4161 17.592 82.4161 19.08C82.4161 20.256 82.1521 21.384 81.6241 22.464C81.0961 23.544 80.3401 24.504 79.3561 25.344C78.3721 26.16 77.1601 26.82 75.7201 27.324C74.3041 27.828 72.6961 28.08 70.8961 28.08C69.1921 28.08 67.6561 27.84 66.2881 27.36C64.9441 26.904 63.7681 26.268 62.7601 25.452C61.7521 24.612 60.9001 23.616 60.2041 22.464C59.5321 21.312 59.0161 20.064 58.6561 18.72L66.9361 17.64C67.2961 18.552 67.7881 19.26 68.4121 19.764C69.0361 20.268 69.9841 20.52 71.2561 20.52C72.0721 20.52 72.6961 20.34 73.1281 19.98C73.5601 19.596 73.7761 19.176 73.7761 18.72ZM110.853 27H102.573L101.673 23.04H93.0333L92.1333 27H83.8533L89.9733 1.8H104.733L110.853 27ZM98.4333 9.36H96.2733L94.8333 15.48H99.8733L98.4333 9.36ZM137.853 27H129.033L125.613 20.16H122.013V27H113.733V1.8H127.053C128.661 1.8 130.113 2.04 131.409 2.52C132.705 2.976 133.797 3.624 134.685 4.464C135.597 5.28 136.293 6.264 136.773 7.416C137.253 8.568 137.493 9.816 137.493 11.16C137.493 12.528 137.265 13.668 136.809 14.58C136.377 15.492 135.885 16.224 135.333 16.776C134.709 17.424 133.989 17.952 133.173 18.36L137.853 27ZM122.013 9V13.32H127.053C127.605 13.32 128.097 13.104 128.529 12.672C128.985 12.216 129.213 11.712 129.213 11.16C129.213 10.608 128.985 10.116 128.529 9.684C128.097 9.228 127.605 9 127.053 9H122.013ZM149.166 12.096C148.83 12.816 148.662 13.584 148.662 14.4C148.662 15.216 148.83 15.996 149.166 16.74C149.502 17.46 149.946 18.108 150.498 18.684C151.074 19.236 151.722 19.68 152.442 20.016C153.186 20.352 153.966 20.52 154.782 20.52C155.598 20.52 156.366 20.352 157.086 20.016C157.83 19.68 158.478 19.236 159.03 18.684C159.606 18.108 160.062 17.46 160.398 16.74C160.734 15.996 160.902 15.216 160.902 14.4C160.902 13.584 160.734 12.816 160.398 12.096C160.062 11.352 159.606 10.704 159.03 10.152C158.478 9.576 157.83 9.12 157.086 8.784C156.366 8.448 155.598 8.28 154.782 8.28C153.966 8.28 153.186 8.448 152.442 8.784C151.722 9.12 151.074 9.576 150.498 10.152C149.946 10.704 149.502 11.352 149.166 12.096ZM168.03 9.252C168.798 10.884 169.182 12.6 169.182 14.4C169.182 16.2 168.798 17.928 168.03 19.584C167.286 21.24 166.254 22.704 164.934 23.976C163.638 25.224 162.114 26.22 160.362 26.964C158.61 27.708 156.75 28.08 154.782 28.08C152.79 28.08 150.918 27.708 149.166 26.964C147.438 26.22 145.914 25.224 144.594 23.976C143.298 22.704 142.266 21.24 141.498 19.584C140.754 17.928 140.382 16.2 140.382 14.4C140.382 12.6 140.754 10.884 141.498 9.252C142.266 7.596 143.298 6.144 144.594 4.896C145.914 3.624 147.438 2.616 149.166 1.872C150.918 1.104 152.79 0.719999 154.782 0.719999C156.75 0.719999 158.61 1.104 160.362 1.872C162.114 2.616 163.638 3.624 164.934 4.896C166.254 6.144 167.286 7.596 168.03 9.252ZM188.273 1.8H196.553L190.433 27H176.393L170.273 1.8H178.553L182.693 19.44H184.133L188.273 1.8Z" fill="white"/>
</svg>
