<svg width="20" height="20" viewBox="0 0 20 20" fill="none" xmlns="http://www.w3.org/2000/svg">
<path d="M8.75195 0.058836C6.94727 0.293211 5.4082 0.926023 3.9082 2.04712C3.43164 2.40259 2.4043 3.42993 2.04883 3.90649C1.00195 5.30884 0.353516 6.82055 0.0917969 8.4768C-0.00976562 9.11743 -0.00976562 10.8831 0.0917969 11.5237C0.412109 13.551 1.33789 15.4221 2.74805 16.8987C4.28711 18.5081 6.16211 19.5041 8.37695 19.8909C9.05664 20.0081 10.498 20.0354 11.2168 19.9416C15.8574 19.3596 19.459 15.7073 19.9629 11.0666C20.0254 10.5002 19.9941 8.98462 19.9082 8.46118C19.1895 4.03149 15.6582 0.605711 11.252 0.058836C10.666 -0.0114765 9.29492 -0.0114765 8.75195 0.058836ZM9.41602 3.10962V4.89477L9.03711 4.86743C8.39258 4.82055 6.91992 4.58618 6.84961 4.51587C6.82617 4.49243 7.20898 3.71509 7.43555 3.33227C7.83008 2.67212 8.3457 2.04712 8.76758 1.7229C8.93164 1.59399 9.35742 1.33227 9.4082 1.32837C9.41211 1.32837 9.41602 2.12915 9.41602 3.10962ZM10.9902 1.55102C11.502 1.87915 12.084 2.5354 12.5566 3.32055C12.7871 3.70337 13.1816 4.49243 13.1543 4.51587C13.084 4.59009 11.6426 4.82055 10.9707 4.86743L10.5879 4.89477V3.11352C10.5879 1.43384 10.5918 1.33227 10.6582 1.35571C10.6934 1.36743 10.8457 1.45727 10.9902 1.55102ZM7.0332 1.75415C7.0332 1.77759 7.01367 1.80493 6.99414 1.81665C6.92773 1.85962 6.43555 2.61352 6.22852 2.98852C6.12305 3.17993 5.95117 3.52368 5.8457 3.75024C5.74023 3.9768 5.65039 4.1643 5.64648 4.17212C5.63086 4.19165 4.86133 3.87915 4.45117 3.68774L4.07227 3.50805L4.26367 3.33618C4.91211 2.75805 5.94336 2.13305 6.7793 1.80493C7.01367 1.71118 7.0332 1.70727 7.0332 1.75415ZM13.5996 1.9729C14.3379 2.30493 15.1699 2.83227 15.7793 3.36352L15.9395 3.50415L15.5527 3.68384C15.1426 3.87915 14.373 4.19165 14.3574 4.17212C14.3535 4.1643 14.2637 3.9768 14.1582 3.75024C14.0527 3.52368 13.8809 3.17993 13.7754 2.98852C13.5684 2.61352 13.0762 1.85962 13.0098 1.81665C12.9902 1.80493 12.9707 1.77368 12.9707 1.75415C12.9707 1.69946 13.0723 1.73462 13.5996 1.9729ZM4.24414 4.93384C4.45508 5.02759 4.76758 5.15259 4.93555 5.21509C5.10742 5.27759 5.23242 5.34399 5.22461 5.36743C5.17773 5.48852 4.91602 6.55493 4.8457 6.9143C4.74023 7.45337 4.62305 8.38305 4.58789 8.95337L4.56055 9.4143H2.88867C1.85742 9.4143 1.21289 9.39868 1.21289 9.37915C1.21289 9.21118 1.35352 8.33618 1.43555 7.98852C1.71289 6.80493 2.33008 5.51196 3.04102 4.62134L3.20508 4.41821L3.5293 4.59009C3.70898 4.68774 4.0293 4.84009 4.24414 4.93384ZM17.3535 5.17602C18.0762 6.26587 18.5605 7.56665 18.7324 8.87915C18.7637 9.13305 18.791 9.35571 18.791 9.37915C18.791 9.39868 18.1465 9.4143 17.1152 9.4143H15.4434L15.416 8.95337C15.3809 8.38305 15.2637 7.45337 15.1582 6.9143C15.084 6.55102 14.8262 5.48852 14.7793 5.36743C14.7715 5.34009 14.8301 5.30102 14.9121 5.27368C15.1973 5.18384 16.1543 4.76196 16.4668 4.59399L16.7793 4.42212L16.9121 4.56274C16.9824 4.64477 17.1816 4.91821 17.3535 5.17602ZM7.4043 5.87915C7.95508 5.9768 8.9707 6.09399 9.25977 6.09399H9.41602V7.75415V9.4143H7.59961H5.7832V9.25805C5.7832 8.96118 5.9082 7.9104 6.00195 7.38305C6.0957 6.87915 6.22852 6.30884 6.35352 5.87524L6.41211 5.67602L6.63477 5.7268C6.75586 5.75805 7.10352 5.82446 7.4043 5.87915ZM13.7832 6.38696C14.0098 7.29321 14.2207 8.65649 14.2207 9.24634V9.4143H12.4043H10.5879V7.75415V6.09399H10.7441C11.2051 6.09399 12.709 5.88696 13.3613 5.73071C13.5098 5.69555 13.584 5.69165 13.6035 5.71899C13.6152 5.74243 13.6973 6.04321 13.7832 6.38696ZM4.58789 11.0432C4.62305 11.6174 4.74023 12.5471 4.8457 13.0862C4.91602 13.4416 5.17773 14.512 5.22461 14.6331C5.23242 14.6565 5.04102 14.7463 4.79102 14.8401C4.54102 14.9338 4.08008 15.137 3.76758 15.2932L3.19727 15.5745L3.03711 15.3752C2.75195 15.0159 2.3457 14.3635 2.11133 13.887C1.62695 12.8948 1.36523 11.9768 1.23242 10.8088L1.20898 10.5862H2.88477H4.56055L4.58789 11.0432ZM9.41602 12.2424V13.8948L8.99805 13.9221C8.29492 13.969 7.35352 14.1057 6.71289 14.2541L6.41211 14.3245L6.35352 14.1252C6.22852 13.6916 6.0957 13.1213 6.00195 12.6174C5.9082 12.0901 5.7832 11.0393 5.7832 10.7424V10.5862H7.59961H9.41602V12.2424ZM14.2207 10.7502C14.2207 11.0159 14.1113 11.9651 14.0254 12.4924C13.9004 13.2229 13.6152 14.3518 13.5645 14.3206C13.5488 14.3127 13.3105 14.2581 13.0293 14.1995C12.4277 14.0745 11.5879 13.9612 11.0098 13.9221L10.5879 13.8948V12.2424V10.5862H12.4043H14.2207V10.7502ZM18.791 10.6213C18.791 10.7893 18.6504 11.6643 18.5684 12.012C18.291 13.1916 17.6699 14.4885 16.9668 15.3752L16.8066 15.5745L16.2051 15.2776C15.873 15.1135 15.416 14.9104 15.1855 14.8284C14.9512 14.7424 14.7715 14.6565 14.7793 14.6331C14.8262 14.512 15.0879 13.4416 15.1582 13.0862C15.2637 12.5471 15.3809 11.6174 15.416 11.0432L15.4434 10.5862H17.1152C18.1465 10.5862 18.791 10.6018 18.791 10.6213ZM9.41602 16.8987V18.676L9.18164 18.551C8.63477 18.262 8.00195 17.5901 7.49805 16.7737C7.29883 16.4456 6.82227 15.5081 6.8457 15.4846C6.93164 15.4026 8.62305 15.1409 9.21289 15.1252L9.41602 15.1174V16.8987ZM11.877 15.2346C12.3691 15.301 13.1191 15.4495 13.1543 15.4846C13.1816 15.5081 12.7871 16.2971 12.5566 16.6799C12.2441 17.1995 11.9512 17.5862 11.5801 17.9573C11.2988 18.2385 10.8496 18.5745 10.6582 18.6448C10.5918 18.6682 10.5879 18.5666 10.5879 16.887V15.1057L10.9707 15.1331C11.1777 15.1487 11.5879 15.1956 11.877 15.2346ZM5.8418 16.2424C6.17773 16.9651 6.70898 17.8713 6.9668 18.1526C7.00977 18.2034 7.03711 18.2502 7.0293 18.262C6.9707 18.3166 5.89648 17.8127 5.37305 17.4807C4.9707 17.2268 4.54883 16.9143 4.26367 16.6643L4.07227 16.4924L4.41602 16.3284C4.72852 16.1838 5.58008 15.8245 5.62695 15.8206C5.63867 15.8206 5.73242 16.0081 5.8418 16.2424ZM14.7754 15.9768C14.9902 16.0627 15.3418 16.2151 15.5527 16.3127L15.9355 16.4924L15.6816 16.7151C15.3145 17.0315 14.8105 17.3831 14.3379 17.6526C13.8887 17.9104 13.0176 18.3049 12.9824 18.2659C12.9668 18.2541 12.9941 18.2034 13.0371 18.1526C13.2402 17.9338 13.7129 17.1448 14.0215 16.5159C14.2051 16.137 14.3613 15.8245 14.3691 15.8206C14.373 15.8206 14.5566 15.8909 14.7754 15.9768Z" fill="white"/>
</svg>
