<svg width="20" height="20" viewBox="0 0 20 20" fill="none" xmlns="http://www.w3.org/2000/svg">
<path d="M12.332 0H8.33203C4.48203 0 1.33203 3.14869 1.33203 6.99708V9.99584C1.33203 12.6947 2.90703 15.1687 5.33203 16.3182V19.6668C5.33203 19.9667 5.70703 20.1166 5.90703 19.8917L8.80703 16.9929H12.332C16.182 16.9929 19.332 13.8442 19.332 9.99584V6.99708C19.332 3.14869 16.182 0 12.332 0ZM14.957 13.1195L13.932 14.1191C12.857 15.1687 10.082 13.9692 7.63203 11.4702C5.18203 8.97126 4.10703 6.17243 5.13203 5.12287L6.13203 4.12328C6.50703 3.74844 7.13203 3.77343 7.55703 4.14827L9.00703 5.64765C9.53203 6.17243 9.30703 7.07205 8.63203 7.27197C8.15703 7.42191 7.83203 7.94669 7.98203 8.42149C8.23203 9.52103 9.63203 10.9205 10.682 11.1953C11.157 11.2953 11.682 11.0454 11.857 10.5706C12.082 9.89588 12.982 9.69596 13.482 10.2207L14.932 11.7201C15.332 12.07 15.332 12.6947 14.957 13.1195ZM11.232 4.74802C11.132 4.74802 11.032 4.74802 10.932 4.77301C10.757 4.798 10.582 4.64806 10.557 4.47314C10.532 4.29821 10.682 4.12328 10.857 4.09829C10.982 4.0733 11.107 4.0733 11.232 4.0733C13.057 4.0733 14.557 5.57268 14.557 7.39692C14.557 7.52187 14.557 7.64681 14.532 7.77176C14.507 7.94669 14.332 8.09663 14.157 8.07164C13.982 8.04665 13.832 7.87172 13.857 7.69679C13.857 7.59683 13.882 7.49688 13.882 7.39692C13.907 5.94752 12.707 4.74802 11.232 4.74802ZM13.232 7.42191C13.232 7.59684 13.082 7.74677 12.907 7.74677C12.732 7.74677 12.582 7.59684 12.582 7.42191C12.582 6.69721 11.982 6.09746 11.257 6.09746C11.082 6.09746 10.932 5.94752 10.932 5.77259C10.932 5.59767 11.082 5.44773 11.257 5.44773C12.332 5.42274 13.232 6.32237 13.232 7.42191ZM15.782 8.49646C15.732 8.67139 15.557 8.79634 15.357 8.74636C15.182 8.69638 15.082 8.52145 15.132 8.34652C15.207 8.04665 15.232 7.74677 15.232 7.42191C15.232 5.22282 13.432 3.42357 11.232 3.42357C11.132 3.42357 11.032 3.42357 10.932 3.42357C10.757 3.42357 10.582 3.29863 10.582 3.1237C10.582 2.94877 10.707 2.77384 10.882 2.77384C11.007 2.77384 11.132 2.74885 11.232 2.74885C13.807 2.74885 15.907 4.84798 15.907 7.42191C15.907 7.77176 15.857 8.14661 15.782 8.49646Z" fill="white"/>
</svg>
