<svg width="20" height="20" viewBox="0 0 20 20" fill="none" xmlns="http://www.w3.org/2000/svg">
<g clip-path="url(#clip0_1_115)">
<path d="M10 0C4.475 0 0 4.475 0 10C0 12.2 0.7 14.225 1.9 15.875L0.525 19.5L4.5 18.35C6.075 19.4 7.975 20 10 20C15.525 20 20 15.525 20 10C20 4.475 15.525 0 10 0ZM15.325 14.15L14.25 15.2C13.125 16.325 10.15 15.1 7.525 12.45C4.9 9.825 3.725 6.85 4.775 5.75L5.85 4.675C6.25 4.275 6.925 4.275 7.35 4.675L8.925 6.25C9.475 6.8 9.25 7.75 8.525 7.975C8.025 8.15 7.675 8.7 7.85 9.2C8.125 10.375 9.65 11.825 10.775 12.1C11.275 12.225 11.85 11.925 12 11.425C12.225 10.7 13.175 10.475 13.725 11.025L15.3 12.6C15.7 13.025 15.7 13.7 15.325 14.15Z" fill="white"/>
</g>
<defs>
<clipPath id="clip0_1_115">
<rect width="20" height="20" fill="white"/>
</clipPath>
</defs>
</svg>
